<mxfile host="app.diagrams.net" modified="2024-05-15T21:54:53.342Z" agent="Mozilla/5.0 (Macintosh; Intel Mac OS X 10_15_7) AppleWebKit/537.36 (KHTML, like Gecko) Chrome/124.0.0.0 Safari/537.36" etag="CqVZJF5Zme3X3PMXykLG" version="24.4.2" type="device" pages="2">
  <diagram name="Page-1" id="ejgDRsydhqBr2LsVU5_8">
    <mxGraphModel dx="906" dy="466" grid="1" gridSize="10" guides="1" tooltips="1" connect="1" arrows="1" fold="1" page="1" pageScale="1" pageWidth="827" pageHeight="1169" math="0" shadow="0">
      <root>
        <mxCell id="0" />
        <mxCell id="1" parent="0" />
        <mxCell id="on97a3sLuW6V2M56yUhg-12" style="edgeStyle=orthogonalEdgeStyle;rounded=0;orthogonalLoop=1;jettySize=auto;html=1;" edge="1" parent="1" source="on97a3sLuW6V2M56yUhg-2">
          <mxGeometry relative="1" as="geometry">
            <mxPoint x="300" y="230" as="targetPoint" />
          </mxGeometry>
        </mxCell>
        <mxCell id="on97a3sLuW6V2M56yUhg-2" value="" style="rounded=0;whiteSpace=wrap;html=1;" vertex="1" parent="1">
          <mxGeometry x="40" y="125" width="120" height="210" as="geometry" />
        </mxCell>
        <mxCell id="on97a3sLuW6V2M56yUhg-4" value="TakeAlot" style="shape=document;whiteSpace=wrap;html=1;boundedLbl=1;" vertex="1" parent="1">
          <mxGeometry x="50" y="140" width="90" height="30" as="geometry" />
        </mxCell>
        <mxCell id="on97a3sLuW6V2M56yUhg-6" value="" style="rounded=0;whiteSpace=wrap;html=1;" vertex="1" parent="1">
          <mxGeometry x="310" y="110" width="510" height="610" as="geometry" />
        </mxCell>
        <mxCell id="on97a3sLuW6V2M56yUhg-7" value="PriceBeater" style="shape=document;whiteSpace=wrap;html=1;boundedLbl=1;" vertex="1" parent="1">
          <mxGeometry x="324" y="125" width="90" height="30" as="geometry" />
        </mxCell>
        <mxCell id="on97a3sLuW6V2M56yUhg-9" value="Webhook notification subscription" style="rounded=0;whiteSpace=wrap;html=1;" vertex="1" parent="1">
          <mxGeometry x="50" y="220" width="100" height="60" as="geometry" />
        </mxCell>
        <mxCell id="on97a3sLuW6V2M56yUhg-13" value="Notification&lt;br&gt;http POST" style="rounded=1;whiteSpace=wrap;html=1;" vertex="1" parent="1">
          <mxGeometry x="190" y="190" width="90" height="30" as="geometry" />
        </mxCell>
        <mxCell id="on97a3sLuW6V2M56yUhg-14" value="API Gateway&lt;br&gt;REST API&lt;br&gt;- resource=webook&lt;br&gt;- method=POST" style="rounded=1;whiteSpace=wrap;html=1;" vertex="1" parent="1">
          <mxGeometry x="340" y="190" width="120" height="60" as="geometry" />
        </mxCell>
        <mxCell id="on97a3sLuW6V2M56yUhg-18" value="lambda&lt;div&gt;- read notification&lt;br&gt;- calcutaes response price&lt;/div&gt;&lt;div&gt;&lt;span style=&quot;background-color: initial;&quot;&gt;&amp;nbsp;&lt;/span&gt;&lt;/div&gt;" style="rounded=1;whiteSpace=wrap;html=1;" vertex="1" parent="1">
          <mxGeometry x="590" y="170" width="160" height="100" as="geometry" />
        </mxCell>
        <mxCell id="on97a3sLuW6V2M56yUhg-37" value="notification store dynamodb table&lt;div&gt;- seller id&lt;/div&gt;&lt;div&gt;- product id&lt;br&gt;- old price&amp;nbsp;&lt;/div&gt;&lt;div&gt;- new price&amp;nbsp;&lt;/div&gt;&lt;div&gt;- old stock&amp;nbsp;&lt;/div&gt;&lt;div&gt;- new stock&amp;nbsp;&lt;/div&gt;&lt;div&gt;- datetime&lt;/div&gt;" style="rounded=1;whiteSpace=wrap;html=1;" vertex="1" parent="1">
          <mxGeometry x="360" y="335" width="160" height="135" as="geometry" />
        </mxCell>
        <mxCell id="on97a3sLuW6V2M56yUhg-38" value="sns/queue&lt;br&gt;webhook event notification" style="rounded=1;whiteSpace=wrap;html=1;" vertex="1" parent="1">
          <mxGeometry x="480" y="180" width="90" height="80" as="geometry" />
        </mxCell>
        <mxCell id="on97a3sLuW6V2M56yUhg-39" value="sns/queue" style="rounded=1;whiteSpace=wrap;html=1;" vertex="1" parent="1">
          <mxGeometry x="630" y="290" width="90" height="80" as="geometry" />
        </mxCell>
        <mxCell id="on97a3sLuW6V2M56yUhg-40" value="lambda&lt;div&gt;&lt;span style=&quot;background-color: initial;&quot;&gt;- update price on takealot&lt;/span&gt;&lt;/div&gt;&lt;div&gt;&lt;span style=&quot;background-color: initial;&quot;&gt;- log failed attempts etc&amp;nbsp;&lt;/span&gt;&lt;/div&gt;" style="rounded=1;whiteSpace=wrap;html=1;" vertex="1" parent="1">
          <mxGeometry x="595" y="390" width="160" height="100" as="geometry" />
        </mxCell>
        <mxCell id="on97a3sLuW6V2M56yUhg-44" value="persist&lt;br&gt;all" style="text;html=1;align=center;verticalAlign=middle;whiteSpace=wrap;rounded=0;" vertex="1" parent="1">
          <mxGeometry x="430" y="270" width="60" height="30" as="geometry" />
        </mxCell>
        <mxCell id="on97a3sLuW6V2M56yUhg-47" value="changes dynamodb table&lt;div&gt;- seller id&lt;/div&gt;&lt;div&gt;- product id&lt;br&gt;&lt;/div&gt;&lt;div&gt;- old price&amp;nbsp;&lt;/div&gt;&lt;div&gt;- new price&amp;nbsp;&lt;/div&gt;&lt;div&gt;- datetime&lt;/div&gt;" style="rounded=1;whiteSpace=wrap;html=1;" vertex="1" parent="1">
          <mxGeometry x="360" y="517" width="160" height="135" as="geometry" />
        </mxCell>
        <mxCell id="on97a3sLuW6V2M56yUhg-48" value="" style="endArrow=classic;html=1;rounded=0;" edge="1" parent="1" source="on97a3sLuW6V2M56yUhg-38">
          <mxGeometry width="50" height="50" relative="1" as="geometry">
            <mxPoint x="390" y="430" as="sourcePoint" />
            <mxPoint x="470" y="330" as="targetPoint" />
          </mxGeometry>
        </mxCell>
        <mxCell id="on97a3sLuW6V2M56yUhg-55" value="" style="endArrow=classic;html=1;rounded=0;" edge="1" parent="1">
          <mxGeometry width="50" height="50" relative="1" as="geometry">
            <mxPoint x="620" y="540" as="sourcePoint" />
            <mxPoint x="540" y="570" as="targetPoint" />
          </mxGeometry>
        </mxCell>
        <mxCell id="on97a3sLuW6V2M56yUhg-56" value="persist successful price changes&amp;nbsp;" style="text;html=1;align=center;verticalAlign=middle;whiteSpace=wrap;rounded=0;" vertex="1" parent="1">
          <mxGeometry x="570" y="560" width="90" height="80" as="geometry" />
        </mxCell>
      </root>
    </mxGraphModel>
  </diagram>
  <diagram id="NLBQ5rA5ZkIwOL0YVMgZ" name="Page-2">
    <mxGraphModel dx="1914" dy="1026" grid="1" gridSize="10" guides="1" tooltips="1" connect="1" arrows="1" fold="1" page="1" pageScale="1" pageWidth="827" pageHeight="1169" math="0" shadow="0">
      <root>
        <mxCell id="0" />
        <mxCell id="1" parent="0" />
        <mxCell id="cbmR8yUz8xrxiPoAG6qq-1" value="" style="endArrow=none;html=1;rounded=0;" edge="1" parent="1">
          <mxGeometry width="50" height="50" relative="1" as="geometry">
            <mxPoint x="400" y="1170" as="sourcePoint" />
            <mxPoint x="400" as="targetPoint" />
          </mxGeometry>
        </mxCell>
        <mxCell id="F9laRQG6YY-CmFMAMOFA-1" value="" style="rounded=0;whiteSpace=wrap;html=1;" vertex="1" parent="1">
          <mxGeometry x="480" y="40" width="690" height="660" as="geometry" />
        </mxCell>
        <mxCell id="kqUJWVXQtnwB94XZd-y--5" value="" style="group" vertex="1" connectable="0" parent="1">
          <mxGeometry x="760" y="170" width="330" height="460" as="geometry" />
        </mxCell>
        <mxCell id="sHRY2571cmDrQVdBGFsA-9" value="" style="rounded=1;whiteSpace=wrap;html=1;" vertex="1" parent="kqUJWVXQtnwB94XZd-y--5">
          <mxGeometry width="150" height="110" as="geometry" />
        </mxCell>
        <mxCell id="sHRY2571cmDrQVdBGFsA-33" value="" style="sketch=0;outlineConnect=0;fontColor=#232F3E;gradientColor=none;fillColor=#ED7100;strokeColor=none;dashed=0;verticalLabelPosition=bottom;verticalAlign=top;align=center;html=1;fontSize=12;fontStyle=0;aspect=fixed;pointerEvents=1;shape=mxgraph.aws4.lambda_function;" vertex="1" parent="kqUJWVXQtnwB94XZd-y--5">
          <mxGeometry x="48" y="10" width="54" height="54" as="geometry" />
        </mxCell>
        <mxCell id="sHRY2571cmDrQVdBGFsA-22" value="" style="group" vertex="1" connectable="0" parent="kqUJWVXQtnwB94XZd-y--5">
          <mxGeometry x="-190" width="150" height="110" as="geometry" />
        </mxCell>
        <mxCell id="BGAgTKkZUjn81o_t3knH-51" style="edgeStyle=orthogonalEdgeStyle;rounded=0;orthogonalLoop=1;jettySize=auto;html=1;" edge="1" parent="sHRY2571cmDrQVdBGFsA-22" source="sHRY2571cmDrQVdBGFsA-2">
          <mxGeometry relative="1" as="geometry">
            <mxPoint x="190" y="55" as="targetPoint" />
          </mxGeometry>
        </mxCell>
        <mxCell id="sHRY2571cmDrQVdBGFsA-2" value="" style="rounded=1;whiteSpace=wrap;html=1;" vertex="1" parent="sHRY2571cmDrQVdBGFsA-22">
          <mxGeometry width="150" height="110" as="geometry" />
        </mxCell>
        <mxCell id="sHRY2571cmDrQVdBGFsA-19" value="" style="outlineConnect=0;dashed=0;verticalLabelPosition=bottom;verticalAlign=top;align=center;html=1;shape=mxgraph.aws3.api_gateway;fillColor=#D9A741;gradientColor=none;" vertex="1" parent="sHRY2571cmDrQVdBGFsA-22">
          <mxGeometry x="50" y="14.25" width="50" height="59.25" as="geometry" />
        </mxCell>
        <mxCell id="sHRY2571cmDrQVdBGFsA-21" value="REST API" style="text;html=1;align=center;verticalAlign=middle;whiteSpace=wrap;rounded=0;" vertex="1" parent="sHRY2571cmDrQVdBGFsA-22">
          <mxGeometry x="25" y="73.5" width="105" height="30" as="geometry" />
        </mxCell>
        <mxCell id="sHRY2571cmDrQVdBGFsA-7" value="" style="group" vertex="1" connectable="0" parent="kqUJWVXQtnwB94XZd-y--5">
          <mxGeometry width="155" height="110" as="geometry" />
        </mxCell>
        <mxCell id="sHRY2571cmDrQVdBGFsA-5" value="" style="rounded=1;whiteSpace=wrap;html=1;" vertex="1" parent="sHRY2571cmDrQVdBGFsA-7">
          <mxGeometry width="150" height="110" as="geometry" />
        </mxCell>
        <mxCell id="sHRY2571cmDrQVdBGFsA-6" value="" style="outlineConnect=0;dashed=0;verticalLabelPosition=bottom;verticalAlign=top;align=center;html=1;shape=mxgraph.aws3.sqs;fillColor=#D9A741;gradientColor=none;" vertex="1" parent="sHRY2571cmDrQVdBGFsA-7">
          <mxGeometry x="51.74999999999999" y="13.5" width="46.5" height="56.5" as="geometry" />
        </mxCell>
        <mxCell id="sHRY2571cmDrQVdBGFsA-15" value="change- notifications-queue" style="text;html=1;align=center;verticalAlign=middle;whiteSpace=wrap;rounded=0;" vertex="1" parent="sHRY2571cmDrQVdBGFsA-7">
          <mxGeometry x="22.5" y="70" width="105" height="30" as="geometry" />
        </mxCell>
        <mxCell id="BGAgTKkZUjn81o_t3knH-10" value="" style="group" vertex="1" connectable="0" parent="kqUJWVXQtnwB94XZd-y--5">
          <mxGeometry x="-190" y="180" width="150" height="110" as="geometry" />
        </mxCell>
        <mxCell id="_gKkOS53E-S1pu1FREKO-1" value="" style="rounded=1;whiteSpace=wrap;html=1;" vertex="1" parent="BGAgTKkZUjn81o_t3knH-10">
          <mxGeometry width="150" height="110" as="geometry" />
        </mxCell>
        <mxCell id="_gKkOS53E-S1pu1FREKO-2" value="" style="sketch=0;points=[[0,0,0],[0.25,0,0],[0.5,0,0],[0.75,0,0],[1,0,0],[0,1,0],[0.25,1,0],[0.5,1,0],[0.75,1,0],[1,1,0],[0,0.25,0],[0,0.5,0],[0,0.75,0],[1,0.25,0],[1,0.5,0],[1,0.75,0]];outlineConnect=0;fontColor=#232F3E;fillColor=#C925D1;strokeColor=#ffffff;dashed=0;verticalLabelPosition=bottom;verticalAlign=top;align=center;html=1;fontSize=12;fontStyle=0;aspect=fixed;shape=mxgraph.aws4.resourceIcon;resIcon=mxgraph.aws4.dynamodb;" vertex="1" parent="BGAgTKkZUjn81o_t3knH-10">
          <mxGeometry x="50" y="20" width="50" height="50" as="geometry" />
        </mxCell>
        <mxCell id="_gKkOS53E-S1pu1FREKO-9" value="change notification store" style="text;html=1;align=center;verticalAlign=middle;whiteSpace=wrap;rounded=0;" vertex="1" parent="BGAgTKkZUjn81o_t3knH-10">
          <mxGeometry x="22.5" y="80" width="105" height="30" as="geometry" />
        </mxCell>
        <mxCell id="kqUJWVXQtnwB94XZd-y--3" value="" style="group" vertex="1" connectable="0" parent="kqUJWVXQtnwB94XZd-y--5">
          <mxGeometry x="180" y="200" width="150" height="110" as="geometry" />
        </mxCell>
        <mxCell id="sHRY2571cmDrQVdBGFsA-32" value="" style="rounded=1;whiteSpace=wrap;html=1;" vertex="1" parent="kqUJWVXQtnwB94XZd-y--3">
          <mxGeometry width="150" height="110" as="geometry" />
        </mxCell>
        <mxCell id="kqUJWVXQtnwB94XZd-y--1" value="" style="outlineConnect=0;dashed=0;verticalLabelPosition=bottom;verticalAlign=top;align=center;html=1;shape=mxgraph.aws3.sqs;fillColor=#D9A741;gradientColor=none;" vertex="1" parent="kqUJWVXQtnwB94XZd-y--3">
          <mxGeometry x="51.75" y="10" width="46.5" height="56.5" as="geometry" />
        </mxCell>
        <mxCell id="kqUJWVXQtnwB94XZd-y--2" value="change- response-queue" style="text;html=1;align=center;verticalAlign=middle;whiteSpace=wrap;rounded=0;" vertex="1" parent="kqUJWVXQtnwB94XZd-y--3">
          <mxGeometry x="22.5" y="76" width="105" height="30" as="geometry" />
        </mxCell>
        <mxCell id="BGAgTKkZUjn81o_t3knH-11" value="" style="group" vertex="1" connectable="0" parent="kqUJWVXQtnwB94XZd-y--5">
          <mxGeometry x="-190" y="350" width="150" height="110" as="geometry" />
        </mxCell>
        <mxCell id="_gKkOS53E-S1pu1FREKO-3" value="" style="rounded=1;whiteSpace=wrap;html=1;" vertex="1" parent="BGAgTKkZUjn81o_t3knH-11">
          <mxGeometry width="150" height="110" as="geometry" />
        </mxCell>
        <mxCell id="_gKkOS53E-S1pu1FREKO-4" value="" style="sketch=0;points=[[0,0,0],[0.25,0,0],[0.5,0,0],[0.75,0,0],[1,0,0],[0,1,0],[0.25,1,0],[0.5,1,0],[0.75,1,0],[1,1,0],[0,0.25,0],[0,0.5,0],[0,0.75,0],[1,0.25,0],[1,0.5,0],[1,0.75,0]];outlineConnect=0;fontColor=#232F3E;fillColor=#C925D1;strokeColor=#ffffff;dashed=0;verticalLabelPosition=bottom;verticalAlign=top;align=center;html=1;fontSize=12;fontStyle=0;aspect=fixed;shape=mxgraph.aws4.resourceIcon;resIcon=mxgraph.aws4.dynamodb;" vertex="1" parent="BGAgTKkZUjn81o_t3knH-11">
          <mxGeometry x="50" y="10" width="50" height="50" as="geometry" />
        </mxCell>
        <mxCell id="BGAgTKkZUjn81o_t3knH-1" value="change response store" style="text;html=1;align=center;verticalAlign=middle;whiteSpace=wrap;rounded=0;" vertex="1" parent="BGAgTKkZUjn81o_t3knH-11">
          <mxGeometry x="22.5" y="70" width="105" height="30" as="geometry" />
        </mxCell>
        <mxCell id="kqUJWVXQtnwB94XZd-y--9" value="" style="group" vertex="1" connectable="0" parent="kqUJWVXQtnwB94XZd-y--5">
          <mxGeometry x="170" y="345" width="150" height="110" as="geometry" />
        </mxCell>
        <mxCell id="BGAgTKkZUjn81o_t3knH-12" value="" style="group" vertex="1" connectable="0" parent="kqUJWVXQtnwB94XZd-y--9">
          <mxGeometry width="150" height="110" as="geometry" />
        </mxCell>
        <mxCell id="kqUJWVXQtnwB94XZd-y--6" value="" style="rounded=1;whiteSpace=wrap;html=1;" vertex="1" parent="BGAgTKkZUjn81o_t3knH-12">
          <mxGeometry width="150" height="110" as="geometry" />
        </mxCell>
        <mxCell id="kqUJWVXQtnwB94XZd-y--7" value="" style="sketch=0;outlineConnect=0;fontColor=#232F3E;gradientColor=none;fillColor=#ED7100;strokeColor=none;dashed=0;verticalLabelPosition=bottom;verticalAlign=top;align=center;html=1;fontSize=12;fontStyle=0;aspect=fixed;pointerEvents=1;shape=mxgraph.aws4.lambda_function;" vertex="1" parent="BGAgTKkZUjn81o_t3knH-12">
          <mxGeometry x="48" y="10" width="54" height="54" as="geometry" />
        </mxCell>
        <mxCell id="kqUJWVXQtnwB94XZd-y--8" value="change- response-lambda" style="text;html=1;align=center;verticalAlign=middle;whiteSpace=wrap;rounded=0;" vertex="1" parent="BGAgTKkZUjn81o_t3knH-12">
          <mxGeometry x="30" y="70" width="105" height="30" as="geometry" />
        </mxCell>
        <mxCell id="BGAgTKkZUjn81o_t3knH-29" style="edgeStyle=orthogonalEdgeStyle;rounded=0;orthogonalLoop=1;jettySize=auto;html=1;entryX=1;entryY=0.5;entryDx=0;entryDy=0;" edge="1" parent="kqUJWVXQtnwB94XZd-y--5" source="sHRY2571cmDrQVdBGFsA-5" target="_gKkOS53E-S1pu1FREKO-1">
          <mxGeometry relative="1" as="geometry">
            <Array as="points">
              <mxPoint x="50" y="235" />
            </Array>
          </mxGeometry>
        </mxCell>
        <mxCell id="BGAgTKkZUjn81o_t3knH-37" value="" style="edgeStyle=orthogonalEdgeStyle;rounded=0;orthogonalLoop=1;jettySize=auto;html=1;" edge="1" parent="kqUJWVXQtnwB94XZd-y--5" source="kqUJWVXQtnwB94XZd-y--6">
          <mxGeometry relative="1" as="geometry">
            <mxPoint x="-40" y="400" as="targetPoint" />
          </mxGeometry>
        </mxCell>
        <mxCell id="BGAgTKkZUjn81o_t3knH-43" value="&lt;div style=&quot;text-align: center;&quot;&gt;&lt;span style=&quot;background-color: initial;&quot;&gt;change&lt;br&gt;response&lt;/span&gt;&lt;/div&gt;" style="text;whiteSpace=wrap;html=1;" vertex="1" parent="kqUJWVXQtnwB94XZd-y--5">
          <mxGeometry x="30" y="350" width="90" height="40" as="geometry" />
        </mxCell>
        <mxCell id="BGAgTKkZUjn81o_t3knH-59" style="edgeStyle=orthogonalEdgeStyle;rounded=0;orthogonalLoop=1;jettySize=auto;html=1;entryX=0.568;entryY=0.018;entryDx=0;entryDy=0;entryPerimeter=0;" edge="1" parent="kqUJWVXQtnwB94XZd-y--5" source="kqUJWVXQtnwB94XZd-y--2" target="kqUJWVXQtnwB94XZd-y--6">
          <mxGeometry relative="1" as="geometry" />
        </mxCell>
        <mxCell id="BGAgTKkZUjn81o_t3knH-2" value="Price Beater" style="shape=document;whiteSpace=wrap;html=1;boundedLbl=1;" vertex="1" parent="1">
          <mxGeometry x="490" y="50" width="120" height="40" as="geometry" />
        </mxCell>
        <mxCell id="BGAgTKkZUjn81o_t3knH-4" value="" style="whiteSpace=wrap;html=1;aspect=fixed;" vertex="1" parent="1">
          <mxGeometry x="40" y="40" width="280" height="280" as="geometry" />
        </mxCell>
        <mxCell id="BGAgTKkZUjn81o_t3knH-6" value="webhook notification subscription" style="rounded=1;whiteSpace=wrap;html=1;" vertex="1" parent="1">
          <mxGeometry x="80" y="140" width="140" height="100" as="geometry" />
        </mxCell>
        <mxCell id="BGAgTKkZUjn81o_t3knH-8" style="edgeStyle=orthogonalEdgeStyle;rounded=0;orthogonalLoop=1;jettySize=auto;html=1;entryX=-0.008;entryY=0.129;entryDx=0;entryDy=0;entryPerimeter=0;" edge="1" parent="1" source="BGAgTKkZUjn81o_t3knH-4" target="F9laRQG6YY-CmFMAMOFA-1">
          <mxGeometry relative="1" as="geometry" />
        </mxCell>
        <mxCell id="BGAgTKkZUjn81o_t3knH-9" value="&lt;div style=&quot;text-align: center;&quot;&gt;&lt;span style=&quot;background-color: initial;&quot;&gt;change notification&lt;/span&gt;&lt;/div&gt;" style="text;whiteSpace=wrap;html=1;" vertex="1" parent="1">
          <mxGeometry x="800" y="330" width="90" height="40" as="geometry" />
        </mxCell>
        <mxCell id="BGAgTKkZUjn81o_t3knH-39" value="TakeAlot" style="shape=document;whiteSpace=wrap;html=1;boundedLbl=1;" vertex="1" parent="1">
          <mxGeometry x="50" y="50" width="120" height="40" as="geometry" />
        </mxCell>
        <mxCell id="BGAgTKkZUjn81o_t3knH-44" value="" style="group" vertex="1" connectable="0" parent="1">
          <mxGeometry x="940" y="170" width="150" height="110" as="geometry" />
        </mxCell>
        <mxCell id="BGAgTKkZUjn81o_t3knH-45" value="" style="group" vertex="1" connectable="0" parent="BGAgTKkZUjn81o_t3knH-44">
          <mxGeometry width="150" height="110" as="geometry" />
        </mxCell>
        <mxCell id="BGAgTKkZUjn81o_t3knH-46" value="" style="rounded=1;whiteSpace=wrap;html=1;" vertex="1" parent="BGAgTKkZUjn81o_t3knH-45">
          <mxGeometry width="150" height="110" as="geometry" />
        </mxCell>
        <mxCell id="BGAgTKkZUjn81o_t3knH-47" value="" style="sketch=0;outlineConnect=0;fontColor=#232F3E;gradientColor=none;fillColor=#ED7100;strokeColor=none;dashed=0;verticalLabelPosition=bottom;verticalAlign=top;align=center;html=1;fontSize=12;fontStyle=0;aspect=fixed;pointerEvents=1;shape=mxgraph.aws4.lambda_function;" vertex="1" parent="BGAgTKkZUjn81o_t3knH-45">
          <mxGeometry x="48" y="10" width="54" height="54" as="geometry" />
        </mxCell>
        <mxCell id="BGAgTKkZUjn81o_t3knH-48" value="change- calculation-lambda" style="text;html=1;align=center;verticalAlign=middle;whiteSpace=wrap;rounded=0;" vertex="1" parent="BGAgTKkZUjn81o_t3knH-45">
          <mxGeometry x="30" y="70" width="105" height="30" as="geometry" />
        </mxCell>
        <mxCell id="BGAgTKkZUjn81o_t3knH-52" style="edgeStyle=orthogonalEdgeStyle;rounded=0;orthogonalLoop=1;jettySize=auto;html=1;entryX=0;entryY=0.5;entryDx=0;entryDy=0;" edge="1" parent="1" source="sHRY2571cmDrQVdBGFsA-5" target="BGAgTKkZUjn81o_t3knH-46">
          <mxGeometry relative="1" as="geometry" />
        </mxCell>
        <mxCell id="BGAgTKkZUjn81o_t3knH-56" style="edgeStyle=orthogonalEdgeStyle;rounded=0;orthogonalLoop=1;jettySize=auto;html=1;exitX=0.5;exitY=1;exitDx=0;exitDy=0;entryX=0.5;entryY=0;entryDx=0;entryDy=0;" edge="1" parent="1" source="BGAgTKkZUjn81o_t3knH-46" target="sHRY2571cmDrQVdBGFsA-32">
          <mxGeometry relative="1" as="geometry" />
        </mxCell>
      </root>
    </mxGraphModel>
  </diagram>
</mxfile>
